<svg xmlns="http://www.w3.org/2000/svg" viewBox="0 0 100 100" width="100" height="100">
  <defs>
    <linearGradient id="flaskGrad" x1="0%" y1="0%" x2="100%" y2="100%">
      <stop offset="0%" stop-color="#2563EB" />
      <stop offset="100%" stop-color="#0284C7" />
    </linearGradient>
  </defs>
  <!-- Minimalist Erlenmeyer Flask & Chemical Bond Atom -->
  <path d="M42 22 L42 36 L24 70 C22 74 25 78 30 78 L70 78 C75 78 78 74 76 70 L58 36 L58 22" fill="none" stroke="url(#flaskGrad)" stroke-width="5" stroke-linecap="round" stroke-linejoin="round"/>
  <line x1="38" y1="22" x2="62" y2="22" stroke="#1E40AF" stroke-width="5" stroke-linecap="round"/>
  <!-- Liquid Wave level inside flask -->
  <path d="M30 66 Q40 60 50 66 T70 66 L72 74 C72 76 70 77 67 77 L33 77 C30 77 28 76 28 74 Z" fill="#3B82F6" opacity="0.25"/>
  <!-- Bubbles / Electron nodes -->
  <circle cx="50" cy="52" r="3.5" fill="#0284C7"/>
  <circle cx="43" cy="62" r="2.5" fill="#2563EB"/>
  <circle cx="58" cy="60" r="2.5" fill="#38BDF8"/>
  <!-- Orbit accent ring -->
  <ellipse cx="50" cy="50" rx="36" ry="14" fill="none" stroke="#60A5FA" stroke-width="2.5" stroke-dasharray="3 3" transform="rotate(-25 50 50)"/>
  <circle cx="78" cy="38" r="3" fill="#2563EB"/>
</svg>